<mxfile host="app.diagrams.net" modified="2022-05-07T14:29:21.871Z" agent="5.0 (Windows NT 10.0; Win64; x64) AppleWebKit/537.36 (KHTML, like Gecko) Chrome/101.0.4951.54 Safari/537.36" etag="k7c8vihRBi0IIPDPd1JT" version="18.0.1" type="github">
  <diagram id="C5RBs43oDa-KdzZeNtuy" name="Page-1">
    <mxGraphModel dx="1038" dy="500" grid="1" gridSize="10" guides="1" tooltips="1" connect="1" arrows="1" fold="1" page="1" pageScale="1" pageWidth="827" pageHeight="1169" math="0" shadow="0">
      <root>
        <mxCell id="WIyWlLk6GJQsqaUBKTNV-0" />
        <mxCell id="WIyWlLk6GJQsqaUBKTNV-1" parent="WIyWlLk6GJQsqaUBKTNV-0" />
        <mxCell id="_goN-HZ2zoLXErJVBMWv-7" value="" style="edgeStyle=orthogonalEdgeStyle;rounded=0;orthogonalLoop=1;jettySize=auto;html=1;" parent="WIyWlLk6GJQsqaUBKTNV-1" source="WIyWlLk6GJQsqaUBKTNV-3" edge="1">
          <mxGeometry relative="1" as="geometry">
            <mxPoint x="374" y="245" as="targetPoint" />
          </mxGeometry>
        </mxCell>
        <mxCell id="WIyWlLk6GJQsqaUBKTNV-3" value="开始" style="rounded=1;whiteSpace=wrap;html=1;fontSize=12;glass=0;strokeWidth=1;shadow=0;" parent="WIyWlLk6GJQsqaUBKTNV-1" vertex="1">
          <mxGeometry x="314" y="185" width="120" height="30" as="geometry" />
        </mxCell>
        <mxCell id="_goN-HZ2zoLXErJVBMWv-16" value="" style="edgeStyle=orthogonalEdgeStyle;rounded=0;orthogonalLoop=1;jettySize=auto;html=1;" parent="WIyWlLk6GJQsqaUBKTNV-1" edge="1">
          <mxGeometry relative="1" as="geometry">
            <mxPoint x="374" y="285" as="sourcePoint" />
            <mxPoint x="374" y="315" as="targetPoint" />
          </mxGeometry>
        </mxCell>
        <mxCell id="_goN-HZ2zoLXErJVBMWv-25" style="edgeStyle=orthogonalEdgeStyle;rounded=0;orthogonalLoop=1;jettySize=auto;html=1;entryX=0.5;entryY=0;entryDx=0;entryDy=0;" parent="WIyWlLk6GJQsqaUBKTNV-1" source="_goN-HZ2zoLXErJVBMWv-18" target="_goN-HZ2zoLXErJVBMWv-24" edge="1">
          <mxGeometry relative="1" as="geometry" />
        </mxCell>
        <mxCell id="_goN-HZ2zoLXErJVBMWv-76" style="edgeStyle=orthogonalEdgeStyle;rounded=0;orthogonalLoop=1;jettySize=auto;html=1;strokeColor=default;" parent="WIyWlLk6GJQsqaUBKTNV-1" source="_goN-HZ2zoLXErJVBMWv-18" target="_goN-HZ2zoLXErJVBMWv-19" edge="1">
          <mxGeometry relative="1" as="geometry" />
        </mxCell>
        <mxCell id="_goN-HZ2zoLXErJVBMWv-18" value="待处理队列为空?" style="rhombus;whiteSpace=wrap;html=1;shadow=0;fontFamily=Helvetica;fontSize=12;align=center;strokeWidth=1;spacing=6;spacingTop=-4;" parent="WIyWlLk6GJQsqaUBKTNV-1" vertex="1">
          <mxGeometry x="296.5" y="315" width="155" height="50" as="geometry" />
        </mxCell>
        <mxCell id="_goN-HZ2zoLXErJVBMWv-19" value="结束" style="rounded=1;whiteSpace=wrap;html=1;fontSize=12;glass=0;strokeWidth=1;shadow=0;" parent="WIyWlLk6GJQsqaUBKTNV-1" vertex="1">
          <mxGeometry x="539" y="322.5" width="120" height="35" as="geometry" />
        </mxCell>
        <mxCell id="_goN-HZ2zoLXErJVBMWv-22" value="是" style="text;html=1;align=center;verticalAlign=middle;resizable=0;points=[];autosize=1;strokeColor=none;fillColor=none;" parent="WIyWlLk6GJQsqaUBKTNV-1" vertex="1">
          <mxGeometry x="486.5" y="320" width="30" height="20" as="geometry" />
        </mxCell>
        <mxCell id="_goN-HZ2zoLXErJVBMWv-23" value="&lt;span&gt;将待爬取资讯站点URL放入待处理队列&lt;/span&gt;" style="rounded=0;whiteSpace=wrap;html=1;" parent="WIyWlLk6GJQsqaUBKTNV-1" vertex="1">
          <mxGeometry x="261.5" y="245" width="225" height="40" as="geometry" />
        </mxCell>
        <mxCell id="_goN-HZ2zoLXErJVBMWv-31" style="edgeStyle=orthogonalEdgeStyle;rounded=0;orthogonalLoop=1;jettySize=auto;html=1;" parent="WIyWlLk6GJQsqaUBKTNV-1" source="_goN-HZ2zoLXErJVBMWv-24" target="_goN-HZ2zoLXErJVBMWv-27" edge="1">
          <mxGeometry relative="1" as="geometry" />
        </mxCell>
        <mxCell id="_goN-HZ2zoLXErJVBMWv-24" value="从待处理队列拿到一个URl" style="rounded=0;whiteSpace=wrap;html=1;" parent="WIyWlLk6GJQsqaUBKTNV-1" vertex="1">
          <mxGeometry x="301.5" y="405" width="145" height="35" as="geometry" />
        </mxCell>
        <mxCell id="_goN-HZ2zoLXErJVBMWv-26" value="否" style="text;html=1;align=center;verticalAlign=middle;resizable=0;points=[];autosize=1;strokeColor=none;fillColor=none;" parent="WIyWlLk6GJQsqaUBKTNV-1" vertex="1">
          <mxGeometry x="369" y="455" width="30" height="20" as="geometry" />
        </mxCell>
        <mxCell id="_goN-HZ2zoLXErJVBMWv-29" style="edgeStyle=orthogonalEdgeStyle;rounded=0;orthogonalLoop=1;jettySize=auto;html=1;entryX=0.5;entryY=0;entryDx=0;entryDy=0;" parent="WIyWlLk6GJQsqaUBKTNV-1" source="_goN-HZ2zoLXErJVBMWv-27" target="_goN-HZ2zoLXErJVBMWv-28" edge="1">
          <mxGeometry relative="1" as="geometry" />
        </mxCell>
        <mxCell id="_goN-HZ2zoLXErJVBMWv-38" style="edgeStyle=orthogonalEdgeStyle;rounded=0;orthogonalLoop=1;jettySize=auto;html=1;entryX=0;entryY=0.5;entryDx=0;entryDy=0;strokeColor=default;" parent="WIyWlLk6GJQsqaUBKTNV-1" source="_goN-HZ2zoLXErJVBMWv-27" target="_goN-HZ2zoLXErJVBMWv-24" edge="1">
          <mxGeometry relative="1" as="geometry">
            <Array as="points">
              <mxPoint x="239" y="515" />
              <mxPoint x="239" y="423" />
            </Array>
          </mxGeometry>
        </mxCell>
        <mxCell id="_goN-HZ2zoLXErJVBMWv-27" value="该URL没有被处理过?" style="rhombus;whiteSpace=wrap;html=1;" parent="WIyWlLk6GJQsqaUBKTNV-1" vertex="1">
          <mxGeometry x="299" y="485" width="150" height="60" as="geometry" />
        </mxCell>
        <mxCell id="_goN-HZ2zoLXErJVBMWv-42" style="edgeStyle=orthogonalEdgeStyle;rounded=0;orthogonalLoop=1;jettySize=auto;html=1;entryX=0.5;entryY=0;entryDx=0;entryDy=0;strokeColor=default;" parent="WIyWlLk6GJQsqaUBKTNV-1" source="_goN-HZ2zoLXErJVBMWv-28" target="_goN-HZ2zoLXErJVBMWv-41" edge="1">
          <mxGeometry relative="1" as="geometry" />
        </mxCell>
        <mxCell id="_goN-HZ2zoLXErJVBMWv-55" style="edgeStyle=orthogonalEdgeStyle;rounded=0;orthogonalLoop=1;jettySize=auto;html=1;entryX=1;entryY=0.5;entryDx=0;entryDy=0;strokeColor=default;" parent="WIyWlLk6GJQsqaUBKTNV-1" source="_goN-HZ2zoLXErJVBMWv-28" target="_goN-HZ2zoLXErJVBMWv-24" edge="1">
          <mxGeometry relative="1" as="geometry">
            <Array as="points">
              <mxPoint x="499" y="600" />
              <mxPoint x="499" y="423" />
            </Array>
          </mxGeometry>
        </mxCell>
        <mxCell id="_goN-HZ2zoLXErJVBMWv-28" value="下载该页面" style="rounded=0;whiteSpace=wrap;html=1;" parent="WIyWlLk6GJQsqaUBKTNV-1" vertex="1">
          <mxGeometry x="314" y="585" width="120" height="30" as="geometry" />
        </mxCell>
        <mxCell id="_goN-HZ2zoLXErJVBMWv-30" value="是" style="text;html=1;align=center;verticalAlign=middle;resizable=0;points=[];autosize=1;strokeColor=none;fillColor=none;" parent="WIyWlLk6GJQsqaUBKTNV-1" vertex="1">
          <mxGeometry x="369" y="555" width="30" height="20" as="geometry" />
        </mxCell>
        <mxCell id="_goN-HZ2zoLXErJVBMWv-40" value="否" style="text;html=1;align=center;verticalAlign=middle;resizable=0;points=[];autosize=1;strokeColor=none;fillColor=none;" parent="WIyWlLk6GJQsqaUBKTNV-1" vertex="1">
          <mxGeometry x="254" y="495" width="30" height="20" as="geometry" />
        </mxCell>
        <mxCell id="_goN-HZ2zoLXErJVBMWv-44" style="edgeStyle=orthogonalEdgeStyle;rounded=0;orthogonalLoop=1;jettySize=auto;html=1;entryX=0.5;entryY=0;entryDx=0;entryDy=0;strokeColor=default;" parent="WIyWlLk6GJQsqaUBKTNV-1" source="_goN-HZ2zoLXErJVBMWv-41" target="_goN-HZ2zoLXErJVBMWv-43" edge="1">
          <mxGeometry relative="1" as="geometry" />
        </mxCell>
        <mxCell id="_goN-HZ2zoLXErJVBMWv-46" style="edgeStyle=orthogonalEdgeStyle;rounded=0;orthogonalLoop=1;jettySize=auto;html=1;entryX=1;entryY=0.25;entryDx=0;entryDy=0;strokeColor=default;" parent="WIyWlLk6GJQsqaUBKTNV-1" source="_goN-HZ2zoLXErJVBMWv-41" target="_goN-HZ2zoLXErJVBMWv-24" edge="1">
          <mxGeometry relative="1" as="geometry">
            <Array as="points">
              <mxPoint x="589" y="680" />
              <mxPoint x="589" y="414" />
            </Array>
          </mxGeometry>
        </mxCell>
        <mxCell id="_goN-HZ2zoLXErJVBMWv-41" value="下载成功?" style="rhombus;whiteSpace=wrap;html=1;" parent="WIyWlLk6GJQsqaUBKTNV-1" vertex="1">
          <mxGeometry x="299" y="655" width="150" height="50" as="geometry" />
        </mxCell>
        <mxCell id="_goN-HZ2zoLXErJVBMWv-58" style="edgeStyle=orthogonalEdgeStyle;rounded=0;orthogonalLoop=1;jettySize=auto;html=1;entryX=0.5;entryY=0;entryDx=0;entryDy=0;strokeColor=default;" parent="WIyWlLk6GJQsqaUBKTNV-1" source="_goN-HZ2zoLXErJVBMWv-43" target="_goN-HZ2zoLXErJVBMWv-57" edge="1">
          <mxGeometry relative="1" as="geometry" />
        </mxCell>
        <mxCell id="_goN-HZ2zoLXErJVBMWv-43" value="提取页面数据" style="rounded=0;whiteSpace=wrap;html=1;" parent="WIyWlLk6GJQsqaUBKTNV-1" vertex="1">
          <mxGeometry x="321.5" y="750" width="105" height="30" as="geometry" />
        </mxCell>
        <mxCell id="_goN-HZ2zoLXErJVBMWv-45" value="是" style="text;html=1;align=center;verticalAlign=middle;resizable=0;points=[];autosize=1;strokeColor=none;fillColor=none;" parent="WIyWlLk6GJQsqaUBKTNV-1" vertex="1">
          <mxGeometry x="369" y="715" width="30" height="20" as="geometry" />
        </mxCell>
        <mxCell id="_goN-HZ2zoLXErJVBMWv-52" style="edgeStyle=orthogonalEdgeStyle;rounded=0;orthogonalLoop=1;jettySize=auto;html=1;entryX=0.5;entryY=0;entryDx=0;entryDy=0;strokeColor=default;" parent="WIyWlLk6GJQsqaUBKTNV-1" source="_goN-HZ2zoLXErJVBMWv-49" target="_goN-HZ2zoLXErJVBMWv-51" edge="1">
          <mxGeometry relative="1" as="geometry" />
        </mxCell>
        <mxCell id="_goN-HZ2zoLXErJVBMWv-49" value="将页面内链存入待处理队列" style="rounded=0;whiteSpace=wrap;html=1;" parent="WIyWlLk6GJQsqaUBKTNV-1" vertex="1">
          <mxGeometry x="296.5" y="865" width="155" height="30" as="geometry" />
        </mxCell>
        <mxCell id="_goN-HZ2zoLXErJVBMWv-61" style="edgeStyle=orthogonalEdgeStyle;rounded=0;orthogonalLoop=1;jettySize=auto;html=1;entryX=0;entryY=0.5;entryDx=0;entryDy=0;strokeColor=default;" parent="WIyWlLk6GJQsqaUBKTNV-1" source="_goN-HZ2zoLXErJVBMWv-51" target="_goN-HZ2zoLXErJVBMWv-18" edge="1">
          <mxGeometry relative="1" as="geometry">
            <Array as="points">
              <mxPoint x="374" y="985" />
              <mxPoint x="169" y="985" />
              <mxPoint x="169" y="340" />
            </Array>
          </mxGeometry>
        </mxCell>
        <mxCell id="_goN-HZ2zoLXErJVBMWv-51" value="将该页面地址存入已处理队列" style="rounded=0;whiteSpace=wrap;html=1;" parent="WIyWlLk6GJQsqaUBKTNV-1" vertex="1">
          <mxGeometry x="291.5" y="925" width="165" height="30" as="geometry" />
        </mxCell>
        <mxCell id="_goN-HZ2zoLXErJVBMWv-56" value="否" style="text;html=1;align=center;verticalAlign=middle;resizable=0;points=[];autosize=1;strokeColor=none;fillColor=none;" parent="WIyWlLk6GJQsqaUBKTNV-1" vertex="1">
          <mxGeometry x="446.5" y="575" width="30" height="20" as="geometry" />
        </mxCell>
        <mxCell id="_goN-HZ2zoLXErJVBMWv-59" style="edgeStyle=orthogonalEdgeStyle;rounded=0;orthogonalLoop=1;jettySize=auto;html=1;entryX=0.5;entryY=0;entryDx=0;entryDy=0;strokeColor=default;" parent="WIyWlLk6GJQsqaUBKTNV-1" source="_goN-HZ2zoLXErJVBMWv-57" target="_goN-HZ2zoLXErJVBMWv-49" edge="1">
          <mxGeometry relative="1" as="geometry" />
        </mxCell>
        <mxCell id="_goN-HZ2zoLXErJVBMWv-57" value="数据持久化" style="rounded=0;whiteSpace=wrap;html=1;" parent="WIyWlLk6GJQsqaUBKTNV-1" vertex="1">
          <mxGeometry x="331.5" y="805" width="85" height="30" as="geometry" />
        </mxCell>
        <mxCell id="_goN-HZ2zoLXErJVBMWv-70" value="否" style="text;html=1;align=center;verticalAlign=middle;resizable=0;points=[];autosize=1;strokeColor=none;fillColor=none;" parent="WIyWlLk6GJQsqaUBKTNV-1" vertex="1">
          <mxGeometry x="476.5" y="655" width="30" height="20" as="geometry" />
        </mxCell>
      </root>
    </mxGraphModel>
  </diagram>
</mxfile>
